#!OML:ASF E:\inclinewalkrobotboard\Project 1\Capture day 1\Session 1\subject1.ASF
:FULLY-SPECIFIED
:DEGREES
261
root 7.86796 22.1415 4.68342 -168.546 0.902384 175.941
lowerback 4.51948 -0.825786 -10.5797
upperback 4.30903 -1.11821 0.987047
thorax 2.23955 -0.741969 7.01688
lowerneck -8.23563 -1.00644 -2.64776
upperneck 24.9385 -0.307923 4.20663
head 9.1771 0.637891 1.95955
rclavicle 1.77664e-014 -1.38155e-014
rhumerus -69.7272 -46.2964 -28.7928
rradius 15.2029
rwrist 39.9897
rhand -14.5134 -37.9527
rfingers 7.12502
rthumb 11.6341 -67.6097
lclavicle 1.77664e-014 -1.38155e-014
lhumerus -21.8145 -4.17612 89.8422
lradius 39.6917
lwrist -15.957
lhand -29.027 -22.4716
lfingers 7.12502
lthumb -2.3778 7.49489
rfemur -52.909 1.6505 13.5249
rtibia 41.7586
rfoot -15.7614 -9.22159
rtoes -35.0085
lfemur -13.109 -8.39865 -27.8374
ltibia 16.2835
lfoot -27.1009 1.1336
ltoes -63.0717
262
root 7.87943 22.1366 4.45448 -168.663 0.492489 175.974
lowerback 4.53564 -1.02671 -10.5802
upperback 4.38691 -1.3791 1.11061
thorax 2.37026 -0.882824 7.15277
lowerneck -7.06697 -1.09363 -3.78168
upperneck 24.2067 -0.579718 5.61209
head 8.71755 0.537519 2.58518
rclavicle -1.10574e-014 8.94531e-015
rhumerus -73.7571 -47.0539 -23.8004
rradius 14.6944
rwrist 42.7877
rhand -14.0856 -38.4475
rfingers 7.12502
rthumb 12.0466 -68.0808
lclavicle -1.10574e-014 8.94531e-015
lhumerus -21.6254 -4.99225 89.9246
lradius 41.0469
lwrist -16.1691
lhand -29.9469 -23.2501
lfingers 7.12502
lthumb -3.26622 6.70464
rfemur -53.4148 1.67014 13.2066
rtibia 37.8991
rfoot -13.7695 -7.96901
rtoes -35.1918
lfemur -11.7239 -8.35003 -27.8903
ltibia 15.6782
lfoot -27.236 0.910027
ltoes -63.3556
263
root 7.89269 22.1277 4.22083 -168.833 0.109225 176.003
lowerback 4.54814 -0.776194 -10.4895
upperback 4.47913 -1.65527 1.1932
thorax 2.46935 -1.28539 7.18392
lowerneck -6.90386 -1.14469 -3.66851
upperneck 24.0485 -0.694194 5.67681
head 8.63814 0.494581 2.57173
rclavicle 1.10822e-014 -1.49089e-015
rhumerus -77.8524 -47.489 -18.911
rradius 14.1885
rwrist 45.5387
rhand -13.8497 -38.7758
rfingers 7.12502
rthumb 12.274 -68.3956
lclavicle 1.10822e-014 -1.49089e-015
lhumerus -21.3096 -5.89542 89.9306
lradius 41.9307
lwrist -16.4193
lhand -30.8487 -24.8088
lfingers 7.12502
lthumb -4.13708 5.13076
rfemur -53.6615 1.50368 13.1588
rtibia 34.9285
rfoot -12.5787 -6.75494
rtoes -33.811
lfemur -10.3403 -8.29549 -27.9348
ltibia 15.2185
lfoot -27.3899 0.789375
ltoes -63.641
264
root 7.90755 22.115 3.98002 -169.012 -0.344011 175.816
lowerback 4.56034 -0.894996 -10.529
upperback 4.49966 -1.818 1.14415
thorax 2.51715 -1.37174 7.15558
lowerneck -6.40818 -1.27934 -3.43895
upperneck 23.7246 -0.898583 5.54952
head 8.44474 0.397159 2.45956
rclavicle 1.96797e-014 8.84592e-015
rhumerus -82.6414 -47.5745 -13.2738
rradius 13.697
rwrist 48.8375
rhand -13.6201 -38.6521
rfingers 7.12502
rthumb 12.4954 -68.2585
lclavicle 1.96797e-014 8.84592e-015
lhumerus -21.0689 -6.73732 89.9255
lradius 42.5744
lwrist -16.4892
lhand -30.6005 -25.7906
lfingers 7.12502
lthumb -3.89737 4.15354
rfemur -53.752 1.12038 12.9539
rtibia 32.0984
rfoot -4.39023 -5.69591
rtoes -46.7212
lfemur -8.96628 -8.29697 -28.2414
ltibia 14.87
lfoot -27.444 0.647917
ltoes -63.9165
265
root 7.92642 22.1043 3.74133 -169.156 -0.852952 175.614
lowerback 4.64414 -1.04979 -10.612
upperback 4.52675 -2.04058 1.16315
thorax 2.54913 -1.49082 7.22723
lowerneck -6.16595 -1.36731 -3.57269
upperneck 23.6819 -1.01398 5.65012
head 8.39229 0.342829 2.50485
rclavicle -1.74434e-014 1.23246e-014
rhumerus -87.6453 -47.5233 -7.02979
rradius 13.2221
rwrist 52.8025
rhand -13.5112 -38.6206
rfingers 7.12502
rthumb 12.6004 -68.2206
lclavicle -1.74434e-014 1.23246e-014
lhumerus -20.638 -7.26477 89.9397
lradius 43.1247
lwrist -15.9268
lhand -29.285 -25.2036
lfingers 7.12502
lthumb -2.62692 4.75997
rfemur -53.73 0.812144 12.6689
rtibia 30.5256
rfoot -7.31814 -5.86192
rtoes -29.9512
lfemur -7.76961 -8.39192 -28.5176
ltibia 14.7707
lfoot -27.5293 0.484936
ltoes -64.2161
266
root 7.95187 22.0953 3.50121 -169.261 -1.38064 175.595
lowerback 4.68282 -1.14633 -10.5687
upperback 4.55966 -2.17424 1.25881
thorax 2.59213 -1.56286 7.30667
lowerneck -6.05228 -1.45653 -3.8637
upperneck 23.7754 -1.1512 6.01412
head 8.4131 0.298048 2.66943
rclavicle -1.0138e-014 -9.44227e-015
rhumerus -92.2738 -47.1841 -1.19762
rradius 12.8012
rwrist 56.3847
rhand -13.2309 -38.7569
rfingers 7.12502
rthumb 12.8706 -68.3401
lclavicle -1.0138e-014 -9.44227e-015
lhumerus -20.1315 -7.92653 89.9926
lradius 43.1915
lwrist -15.7308
lhand -28.8551 -24.6555
lfingers 7.12502
lthumb -2.21176 5.31278
rfemur -53.6179 0.535733 12.8231
rtibia 29.7299
rfoot -4.6241 -6.44472
rtoes -29.9777
lfemur -6.73503 -8.53968 -28.494
ltibia 14.8826
lfoot -27.6005 0.333161
ltoes -64.5353
267
root 7.97737 22.0851 3.23802 -169.629 -1.99687 175.278
lowerback 4.69792 -1.24316 -10.7665
upperback 4.71604 -2.32191 1.25853
thorax 2.79074 -1.66815 7.41644
lowerneck -5.96593 -1.57367 -3.93165
upperneck 23.9448 -1.29716 6.12035
head 8.46416 0.247468 2.70997
rclavicle -1.11816e-014 -2.54444e-014
rhumerus -97.5049 -46.6073 5.59809
rradius 12.3647
rwrist 60.8308
rhand -12.7136 -38.8735
rfingers 7.12502
rthumb 13.3693 -68.4246
lclavicle -1.11816e-014 -2.54444e-014
lhumerus -19.8273 -8.31164 90.0451
lradius 43.0706
lwrist -15.8904
lhand -28.8082 -25.2336
lfingers 7.12502
lthumb -2.16645 4.73519
rfemur -52.9387 0.0532016 12.779
rtibia 29.9357
rfoot -1.84975 -6.90519
rtoes -31.9466
lfemur -5.22316 -8.753 -28.8891
ltibia 14.8603
lfoot -27.5035 0.117966
ltoes -64.9222
268
root 8.00939 22.0892 2.98164 -169.731 -2.66853 175.535
lowerback 4.5643 -1.47731 -10.4483
upperback 4.85399 -2.61665 1.51059
thorax 3.06918 -1.83525 7.49742
lowerneck -6.15907 -1.57779 -4.04044
upperneck 24.1727 -1.22532 5.88266
head 8.57454 0.254815 2.66081
rclavicle -6.95746e-015 1.90833e-014
rhumerus -102.399 -45.9599 12.435
rradius 11.9557
rwrist 65.9443
rhand -12.6061 -38.9829
rfingers 7.12502
rthumb 13.4729 -68.5271
lclavicle -6.95746e-015 1.90833e-014
lhumerus -19.3029 -7.93616 90.1508
lradius 42.6028
lwrist -16.253
lhand -29.0201 -25.5659
lfingers 7.12502
lthumb -2.37113 4.40071
rfemur -52.3856 -0.105768 13.3106
rtibia 30.2815
rfoot 1.6009 -7.02425
rtoes -18.1241
lfemur -4.23848 -9.06037 -28.4477
ltibia 15.0453
lfoot -27.2297 0.0295544
ltoes -65.3515
269
root 8.04404 22.0998 2.72697 -169.673 -3.26324 175.541
lowerback 4.39506 -1.63448 -10.3249
upperback 4.90351 -2.80509 1.65365
thorax 3.25768 -1.94063 7.57155
lowerneck -6.41581 -1.66102 -4.11438
upperneck 24.4719 -1.2591 5.64663
head 8.72776 0.219662 2.59894
rclavicle 2.21645e-014 -2.36554e-014
rhumerus -105.784 -45.1805 17.0207
rradius 11.6763
rwrist 69.734
rhand -12.6713 -38.9122
rfingers 7.12502
rthumb 13.4101 -68.4606
lclavicle 2.21645e-014 -2.36554e-014
lhumerus -18.9866 -7.65504 90.3217
lradius 42.0894
lwrist -16.7276
lhand -29.4719 -25.1282
lfingers 7.12502
lthumb -2.80746 4.83307
rfemur -51.9792 -0.47353 13.8729
rtibia 32.1976
rfoot -2.2706 -7.28982
rtoes -22.2893
lfemur -3.50791 -9.36661 -28.2674
ltibia 15.4352
lfoot -26.8258 -0.0380285
ltoes -65.7535
270
root 8.07923 22.1148 2.4638 -169.533 -3.66581 175.562
lowerback 4.1451 -1.64976 -10.0961
upperback 4.83523 -2.77991 1.6731
thorax 3.30756 -1.91319 7.45342
lowerneck -6.34648 -1.80942 -4.08802
upperneck 24.6106 -1.45534 5.71236
head 8.77398 0.149846 2.60381
rclavicle 3.27995e-015 -1.98785e-015
rhumerus -108.109 -44.3268 19.7384
rradius 11.5718
rwrist 72.2755
rhand -12.5692 -39.1672
rfingers 7.12502
rthumb 13.5085 -68.7091
lclavicle 3.27995e-015 -1.98785e-015
lhumerus -19.3872 -7.58554 90.4308
lradius 41.8891
lwrist -17.3212
lhand -30.2129 -25.0647
lfingers 7.12502
lthumb -3.52307 4.88594
rfemur -51.5192 -0.444356 14.2843
rtibia 33.7507
rfoot -6.12639 -8.71672
rtoes -24.5284
lfemur -2.79848 -9.5509 -28.0843
ltibia 15.8445
lfoot -26.2788 -0.0903943
ltoes -66.1331
271
root 8.11424 22.141 2.19915 -169.345 -3.91737 175.741
lowerback 3.91397 -1.67664 -9.73264
upperback 4.71871 -2.76952 1.74938
thorax 3.29388 -1.88277 7.32155
lowerneck -6.26777 -1.87941 -4.02012
upperneck 24.8124 -1.51395 5.6632
head 8.83192 0.140112 2.57661
rclavicle -6.55989e-015 2.78299e-015
rhumerus -109.307 -43.8637 21.0719
rradius 11.5996
rwrist 73.7075
rhand -12.4529 -39.449
rfingers 7.12502
rthumb 13.6205 -68.9834
lclavicle -6.55989e-015 2.78299e-015
lhumerus -19.9372 -7.2441 90.4938
lradius 41.545
lwrist -17.6918
lhand -29.4651 -24.9723
lfingers 7.12502
lthumb -2.8009 4.98902
rfemur -50.9625 -0.0242619 14.6781
rtibia 34.5122
rfoot -7.09779 -8.8693
rtoes -24.3204
lfemur -2.1566 -9.75272 -27.7365
ltibia 16.2004
lfoot -25.4361 -0.00180733
ltoes -66.4347
272
root 8.14739 22.184 1.94395 -169.146 -3.93892 176.035
lowerback 3.76168 -1.63613 -9.33237
upperback 4.61772 -2.68311 1.88783
thorax 3.23886 -1.81549 7.23869
lowerneck -6.83708 -1.8677 -3.6179
upperneck 25.3356 -1.43125 5.26751
head 9.11186 0.197869 2.3946
rclavicle -7.45443e-015 1.59028e-015
rhumerus -109.775 -43.8668 21.6096
rradius 11.5799
rwrist 74.3855
rhand -11.7984 -39.2511
rfingers 7.12502
rthumb 14.2513 -68.7422
lclavicle -7.45443e-015 1.59028e-015
lhumerus -20.3896 -6.6633 90.5686
lradius 41.0017
lwrist -17.8358
lhand -28.8929 -24.8276
lfingers 7.12502
lthumb -2.24827 5.14029
rfemur -50.8201 0.801232 15.0431
rtibia 35.5893
rfoot -8.31474 -9.3517
rtoes -22.6665
lfemur -1.6741 -10.0466 -27.3278
ltibia 16.6585
lfoot -24.3609 0.3449
ltoes -66.7125
